<?xml version="1.0" standalone="no"?>
<!DOCTYPE svg PUBLIC "-//W3C//DTD SVG 20010904//EN"
 "http://www.w3.org/TR/2001/REC-SVG-20010904/DTD/svg10.dtd">
<svg version="1.0" xmlns="http://www.w3.org/2000/svg"
 width="300.000000pt" height="300.000000pt" viewBox="0 0 300.000000 300.000000"
 preserveAspectRatio="xMidYMid meet">
<metadata>
Created by potrace 1.14, written by Peter Selinger 2001-2017
</metadata>
<g transform="translate(0.000000,300.000000) scale(0.100000,-0.100000)"
fill="#000000" stroke="none">
<path d="M1623 2903 c4 -3 10 -3 14 0 3 4 0 7 -7 7 -7 0 -10 -3 -7 -7z M1445
2888 c11 -6 36 -29 56 -51 38 -44 51 -43 67 2 9 25 8 29 -4 24 -8 -3 -14 -12
-14 -19 0 -12 -5 -11 -27 3 -16 10 -30 20 -33 24 -7 9 -47 29 -57 29 -4 0 1
-6 12 -12z M1705 2874 c10 -15 27 -43 38 -61 l20 -34 31 30 c18 17 37 31 44
31 7 0 12 5 12 10 0 6 -22 -1 -49 -14 l-49 -25 -6 24 c-4 14 -11 25 -16 25 -6
0 -10 6 -10 14 0 8 -7 17 -16 20 -15 6 -15 3 1 -20z M1351 2855 c-28 -33 -60
-85 -62 -102 -3 -25 -33 -82 -45 -87 -17 -7 -10 -26 10 -26 9 0 47 88 50 120
1 8 43 72 66 103 31 39 18 34 -19 -8z M1890 2850 c0 -5 5 -10 11 -10 5 0 7 5
4 10 -3 6 -8 10 -11 10 -2 0 -4 -4 -4 -10z M1930 2835 c0 -3 2 -5 5 -5 3 0 5
2 5 5 0 3 -2 5 -5 5 -3 0 -5 -2 -5 -5z M1942 2810 c37 -88 54 -126 61 -131 5
-3 8 -8 7 -10 -4 -11 21 -59 32 -60 7 0 22 -3 33 -6 11 -2 90 -6 175 -8 85 -1
133 -1 105 1 -170 13 -285 25 -300 30 -17 7 -51 66 -73 128 -8 22 -21 46 -30
55 -13 13 -15 13 -10 1z M1592 2775 c-22 -20 -44 -44 -47 -55 -9 -30 -22 -24
-52 22 -16 24 -31 47 -35 53 -18 26 -111 -100 -123 -167 -4 -21 -12 -41 -19
-46 -6 -5 -119 -13 -251 -16 -270 -8 -370 -17 -385 -32 -10 -10 -52 -202 -52
-234 0 -8 -4 -35 -9 -60 -5 -25 -16 -87 -24 -139 -8 -52 -17 -96 -20 -99 -2
-2 -24 1 -49 7 -100 25 -196 7 -247 -46 -19 -19 -42 -42 -51 -51 -10 -9 -18
-20 -18 -24 0 -5 -11 -31 -25 -60 -34 -71 -55 -190 -55 -312 1 -102 21 -247
38 -269 5 -7 16 -33 25 -59 18 -56 83 -148 143 -204 41 -38 56 -75 35 -88 -4
-3 -11 -47 -14 -98 -3 -51 -13 -156 -21 -233 -18 -164 -20 -298 -5 -326 10
-19 12 -18 37 19 36 52 95 122 103 122 4 0 9 -14 13 -31 7 -37 63 -139 77
-139 13 0 88 98 104 137 14 34 35 45 35 18 0 -16 65 -141 88 -167 18 -21 47
-9 58 24 3 13 15 34 24 48 10 14 23 44 30 67 15 50 26 54 42 16 19 -44 90
-143 102 -143 10 0 97 140 104 168 4 13 32 17 32 4 0 -23 124 -192 140 -192 7
0 68 91 81 120 16 36 32 76 33 82 3 22 18 15 43 -21 87 -127 115 -161 131
-161 17 1 60 52 118 142 l32 48 16 -25 c9 -13 16 -28 16 -31 0 -15 75 -134 85
-134 11 0 25 25 82 138 33 68 52 80 53 34 0 -19 48 -121 72 -155 17 -24 23
-26 34 -15 11 11 69 138 87 191 10 28 21 20 46 -30 27 -57 119 -173 137 -173
6 0 15 21 19 48 4 26 11 54 15 62 4 8 9 33 11 55 4 60 7 60 54 3 49 -60 84
-92 92 -84 3 3 10 51 16 107 10 115 0 252 -32 428 -12 61 -8 71 37 104 93 69
194 256 212 393 6 44 15 107 21 141 6 34 8 66 5 72 -4 6 -14 52 -22 103 -26
164 -103 286 -199 318 -21 7 -68 11 -110 8 l-73 -3 -6 70 c-3 38 -13 153 -21
254 -8 102 -16 186 -18 187 -11 12 -227 43 -298 44 -107 0 -129 7 -129 41 0
16 -16 62 -35 103 -19 41 -35 80 -35 85 0 25 -25 20 -76 -15 l-54 -38 -50 55
c-27 30 -49 57 -50 62 -1 16 -29 5 -68 -28z m118 -112 c22 -24 42 -43 46 -43
3 0 28 18 54 40 57 48 60 45 85 -60 10 -41 22 -80 26 -86 11 -13 -113 -8 -171
7 -19 5 -115 9 -212 9 -98 0 -178 3 -178 8 0 4 6 19 14 33 7 14 16 39 20 55 4
16 19 46 33 67 25 35 27 37 44 21 11 -10 19 -22 19 -29 0 -6 10 -21 23 -33
l23 -21 34 45 c62 80 61 80 83 53 10 -13 36 -43 57 -66z m65 -174 c142 -14
564 -56 573 -58 1 -1 2 -45 2 -98 0 -54 5 -138 11 -188 7 -49 13 -108 15 -130
19 -203 24 -269 33 -395 6 -80 15 -163 21 -185 5 -22 17 -103 26 -180 9 -77
20 -147 24 -155 4 -8 13 -64 20 -125 6 -60 16 -139 22 -175 22 -141 27 -199
27 -310 l1 -115 -56 63 c-31 34 -59 62 -63 62 -8 0 -36 -113 -47 -188 -4 -23
-9 -44 -13 -46 -3 -3 -38 49 -76 114 -39 66 -73 119 -76 120 -3 0 -32 -52 -65
-115 -32 -63 -61 -109 -63 -102 -2 6 -9 26 -16 42 -7 17 -19 48 -26 70 -6 22
-20 55 -29 72 l-17 33 -56 -88 c-31 -49 -59 -96 -63 -105 -10 -28 -17 -20 -53
56 -19 39 -43 84 -54 100 l-19 27 -69 -104 c-38 -58 -73 -107 -78 -110 -8 -5
-87 104 -119 164 -28 52 -37 55 -65 18 -13 -18 -44 -68 -67 -110 -39 -73 -60
-95 -60 -65 0 6 -18 32 -40 57 -22 25 -46 59 -55 76 -34 72 -45 66 -134 -80
-18 -31 -37 -56 -41 -56 -8 0 -12 9 -66 128 -16 34 -33 61 -38 59 -12 -4 -67
-94 -95 -154 -11 -24 -24 -43 -28 -43 -4 0 -31 44 -58 98 -28 53 -55 96 -60
96 -6 -1 -17 -14 -25 -30 -36 -70 -83 -144 -90 -144 -4 0 -11 12 -15 27 -12
51 -76 174 -87 171 -6 -2 -28 -36 -47 -76 -20 -39 -40 -72 -44 -72 -11 0 -3
104 33 400 5 47 10 126 10 176 0 49 4 94 9 100 4 5 14 59 21 119 7 61 15 115
19 120 3 6 16 69 28 140 25 149 59 326 77 410 3 11 12 52 20 90 9 39 23 93 31
120 14 48 43 210 68 382 7 45 15 84 19 88 20 20 860 22 1063 4z m-1212 -538
c12 -12 -8 -141 -28 -180 l-12 -24 -18 26 c-59 91 -194 88 -267 -6 -17 -22
-17 -22 -8 11 24 87 97 163 172 183 42 10 147 4 161 -10z m2032 -60 c41 -18
125 -103 125 -126 0 -7 7 -26 15 -41 9 -19 11 -30 4 -32 -6 -3 -5 -12 4 -25
26 -41 43 -172 27 -222 -5 -16 -14 -61 -20 -98 -16 -102 -89 -261 -157 -345
-43 -52 -63 -55 -63 -7 0 19 -4 43 -9 53 -9 15 -50 283 -56 357 -1 17 -4 41
-8 55 -3 14 -8 59 -12 101 l-6 76 47 52 c43 48 49 51 94 51 27 0 52 -5 55 -10
4 -6 10 -8 15 -5 5 3 23 -4 40 -16 31 -23 45 -22 35 2 -8 20 -114 69 -149 69
-32 0 -92 -33 -118 -65 -16 -20 -16 -20 -22 5 -2 14 -7 62 -11 108 l-5 82 67
0 c44 0 82 -7 108 -19z m-2154 -104 c19 -12 44 -42 57 -65 23 -42 23 -42 7
-124 -10 -46 -18 -92 -19 -103 -2 -11 -5 -27 -9 -35 -3 -8 -13 -67 -22 -130
-9 -63 -21 -128 -26 -145 -5 -16 -14 -63 -20 -104 l-11 -73 -34 33 c-37 38
-96 138 -114 196 -7 21 -17 43 -22 50 -35 44 -51 349 -22 406 53 102 160 145
235 94z M1620 2639 c0 -5 5 -7 10 -4 6 3 10 8 10 11 0 2 -4 4 -10 4 -5 0 -10
-5 -10 -11z M1480 2635 c0 -3 2 -5 5 -5 3 0 5 2 5 5 0 3 -2 5 -5 5 -3 0 -5 -2
-5 -5z M1456 2612 c-3 -4 4 -9 15 -9 23 -2 25 3 4 10 -8 4 -16 3 -19 -1z
M1570 2615 c0 -3 2 -5 5 -5 3 0 5 2 5 5 0 3 -2 5 -5 5 -3 0 -5 -2 -5 -5z
M1848 2057 c-39 -23 -89 -97 -108 -162 -6 -22 -15 -49 -20 -60 -30 -66 -48
-312 -31 -411 18 -103 80 -199 145 -224 52 -19 139 -12 192 16 69 36 100 68
135 141 35 72 49 205 31 303 -18 98 -50 214 -72 259 -61 125 -185 188 -272
138z m132 -62 c17 -9 32 -15 35 -15 3 0 5 -3 6 -7 1 -5 9 -19 19 -33 32 -45
57 -108 50 -121 -5 -7 -2 -22 5 -33 7 -12 21 -71 31 -133 15 -95 15 -119 4
-170 -7 -32 -13 -66 -13 -76 -1 -11 -7 -15 -16 -12 -12 5 -12 3 0 -12 12 -15
12 -16 -3 -10 -11 4 -15 2 -12 -6 8 -22 -80 -95 -129 -109 -53 -14 -127 2
-127 28 0 8 -7 17 -15 21 -21 7 -57 78 -63 123 -12 83 -4 340 11 340 4 0 7 8
7 18 0 27 36 133 42 126 4 -3 4 4 1 17 -5 17 -3 20 7 14 10 -6 12 -4 6 11 -4
10 -4 15 0 11 4 -3 20 5 36 18 34 29 75 32 118 10z m120 -190 c0 -3 -2 -5 -5
-5 -3 0 -5 2 -5 5 0 3 2 5 5 5 3 0 5 -2 5 -5z m-360 -240 c0 -3 -2 -5 -5 -5
-3 0 -5 2 -5 5 0 3 2 5 5 5 3 0 5 -2 5 -5z M2020 1315 c0 -3 2 -5 5 -5 3 0 5
2 5 5 0 3 -2 5 -5 5 -3 0 -5 -2 -5 -5z M2000 1305 c0 -3 2 -5 5 -5 3 0 5 2 5
5 0 3 -2 5 -5 5 -3 0 -5 -2 -5 -5z M979 2031 c-113 -73 -175 -183 -206 -366
-11 -68 -14 -249 -5 -269 6 -12 16 -38 22 -58 17 -56 90 -124 144 -136 82 -17
186 15 237 74 69 79 114 238 113 399 -1 169 -30 269 -101 344 -38 39 -43 41
-99 41 -49 0 -68 -5 -105 -29z m160 -58 c33 -33 61 -84 61 -111 0 -10 4 -22 9
-27 13 -15 22 -78 12 -93 -4 -7 -3 -32 3 -54 9 -32 8 -42 -1 -45 -7 -3 -13 -9
-13 -14 0 -6 5 -7 11 -3 8 4 9 -3 3 -27 -4 -19 -7 -44 -7 -56 0 -13 -3 -20 -9
-17 -5 3 -7 -7 -5 -23 2 -15 0 -35 -4 -43 -4 -8 -16 -33 -25 -55 -37 -83 -122
-155 -185 -155 -25 0 -82 28 -92 47 -5 7 -13 10 -19 7 -7 -4 -8 -2 -4 4 4 7 3
12 -3 12 -50 0 -63 346 -15 394 9 9 10 17 4 21 -11 7 -14 56 -2 54 19 -3 25 2
12 11 -13 9 -13 11 0 20 8 5 11 10 5 10 -5 0 -5 4 2 8 7 4 19 23 27 42 8 19
15 29 16 22 0 -7 5 -10 11 -7 6 4 8 13 5 21 -3 8 -1 14 4 14 5 0 22 11 37 25
15 13 32 28 38 33 5 5 29 9 53 11 35 2 47 -3 71 -26z M1030 1975 c0 -3 2 -5 5
-5 3 0 5 2 5 5 0 3 -2 5 -5 5 -3 0 -5 -2 -5 -5z M940 1885 c0 -3 2 -5 5 -5 3
0 5 2 5 5 0 3 -2 5 -5 5 -3 0 -5 -2 -5 -5z M1200 1605 c0 -3 2 -5 5 -5 3 0 5
2 5 5 0 3 -2 5 -5 5 -3 0 -5 -2 -5 -5z M2009 1052 c-41 -21 -75 -40 -77 -44
-6 -12 -131 -48 -167 -48 -19 0 -45 -4 -58 -9 -13 -5 -90 -17 -171 -27 -129
-16 -161 -16 -259 -5 -235 26 -270 31 -305 41 -32 8 -34 8 -20 -6 8 -8 52 -21
97 -28 45 -7 84 -16 87 -18 3 -3 8 -76 11 -162 7 -189 14 -187 -157 -51 l-66
53 -2 83 c-1 46 -4 95 -7 108 -2 14 0 30 5 36 15 19 -10 34 -61 37 l-44 3 1
-53 c3 -101 36 -163 138 -258 50 -46 101 -87 114 -90 12 -4 22 -10 22 -15 0
-5 5 -9 12 -9 6 0 19 -7 28 -15 50 -45 490 -87 490 -47 0 11 8 13 36 7 20 -3
34 -2 30 3 -3 4 9 9 27 10 79 4 164 24 198 46 36 24 113 133 152 214 37 77 42
95 45 177 5 113 1 116 -99 67z m91 -14 c0 -74 -29 -175 -73 -253 -6 -11 -17
-32 -24 -46 -17 -35 -123 -139 -140 -139 -7 0 -13 -3 -13 -7 0 -5 -10 -9 -22
-10 -54 -4 -104 -11 -118 -16 -34 -13 -181 -37 -191 -31 -6 3 -8 12 -5 19 2 7
10 60 15 117 6 56 14 123 16 148 4 31 2 41 -5 34 -6 -6 -18 -80 -27 -165 -8
-85 -17 -156 -19 -158 -6 -6 -247 19 -285 30 l-36 11 -6 142 c-4 77 -9 155
-13 172 l-6 31 74 -13 c86 -16 230 -18 275 -5 20 6 35 6 39 0 3 -5 10 -6 17
-2 10 6 72 18 237 46 41 7 85 19 98 25 29 16 29 3 1 -58 -11 -25 -30 -67 -41
-95 -19 -49 -19 -49 0 -30 10 11 34 57 51 102 41 102 44 106 111 143 67 36 90
38 90 8z m-1209 -47 c4 -3 9 -56 11 -118 4 -103 3 -111 -11 -90 -8 12 -18 24
-22 27 -11 8 -39 124 -39 164 0 35 1 36 28 30 15 -4 30 -9 33 -13z m846 -438
c-4 -3 -10 -3 -14 0 -3 4 0 7 7 7 7 0 10 -3 7 -7z M1540 875 c0 -3 2 -5 5 -5
3 0 5 2 5 5 0 3 -2 5 -5 5 -3 0 -5 -2 -5 -5z M1795 708 c-11 -29 -21 -57 -24
-63 -2 -7 0 -7 7 0 15 14 53 115 44 115 -4 0 -16 -24 -27 -52z M1755 619 c-4
-6 -5 -12 -2 -15 2 -3 7 2 10 11 7 17 1 20 -8 4z M1210 2660 c0 -7 3 -10 7 -7
3 4 3 10 0 14 -4 3 -7 0 -7 -7z M775 2652 c-55 -1 -104 -8 -110 -13 -7 -8 28
-9 120 -4 72 5 195 11 275 15 l145 7 -165 -1 c-91 -1 -210 -2 -265 -4z M605
2620 c-3 -5 -2 -10 4 -10 5 0 13 5 16 10 3 6 2 10 -4 10 -5 0 -13 -4 -16 -10z
M594 2588 c-4 -7 -3 -8 4 -4 7 4 12 9 12 12 0 8 -9 4 -16 -8z M2415 2590 c3
-5 8 -10 11 -10 3 0 2 5 -1 10 -3 6 -8 10 -11 10 -3 0 -2 -4 1 -10z M569 2558
c0 -7 -2 -21 -4 -30 -2 -10 1 -18 6 -18 5 0 9 6 9 14 0 8 3 21 6 30 3 9 1 16
-5 16 -6 0 -11 -6 -12 -12z M2450 2565 c0 -3 2 -5 5 -5 3 0 5 2 5 5 0 3 -2 5
-5 5 -3 0 -5 -2 -5 -5z M2450 2542 c0 -7 3 -12 8 -12 4 0 7 -10 8 -22 4 -115
28 -385 35 -392 16 -18 19 0 9 60 -5 32 -11 84 -14 114 -2 30 -7 82 -11 115
-3 33 -7 75 -9 93 -3 32 -26 71 -26 44z M550 2448 c-19 -87 -23 -141 -10 -133
6 4 10 17 8 28 -1 12 0 27 4 32 7 13 21 125 15 125 -3 0 -11 -24 -17 -52z
M521 2300 c-8 -19 -8 -91 0 -83 6 6 9 28 6 49 -2 22 -5 37 -6 34z M511 2185
c-2 -26 -24 -55 -42 -55 -8 -1 -1 -8 14 -16 36 -20 39 -17 34 42 -2 27 -4 40
-6 29z M390 2110 c-8 -5 -23 -7 -34 -4 -13 5 -16 3 -11 -7 6 -9 4 -11 -8 -6
-8 3 -21 0 -27 -8 -6 -7 -24 -18 -40 -25 -17 -7 -30 -16 -30 -21 0 -4 26 6 58
22 31 16 73 32 92 35 49 9 73 23 40 24 -14 0 -32 -5 -40 -10z M2500 2080 c0
-20 6 -23 83 -35 48 -8 42 10 -7 19 -19 4 -39 13 -46 21 -17 21 -30 19 -30 -5z
M2668 2019 c52 -26 142 -105 142 -125 0 -8 5 -14 10 -14 6 0 16 -12 23 -27 6
-16 14 -30 18 -33 24 -20 46 -141 42 -230 -2 -55 1 -106 7 -120 7 -19 9 12 7
120 -3 124 -6 152 -25 192 -12 26 -22 54 -22 63 0 10 -5 13 -12 9 -8 -5 -9 -2
-5 10 4 10 3 15 -3 11 -6 -3 -10 -2 -10 4 0 30 -137 142 -190 155 -14 4 -6 -3
18 -15z M210 2019 c0 -5 5 -7 10 -4 6 3 10 8 10 11 0 2 -4 4 -10 4 -5 0 -10
-5 -10 -11z M190 2005 c0 -3 2 -5 5 -5 3 0 5 2 5 5 0 3 -2 5 -5 5 -3 0 -5 -2
-5 -5z M160 1979 c0 -5 5 -7 10 -4 6 3 10 8 10 11 0 2 -4 4 -10 4 -5 0 -10 -5
-10 -11z M130 1930 c-7 -16 -17 -27 -22 -23 -6 3 -8 0 -6 -8 3 -8 -4 -29 -14
-47 -10 -18 -18 -40 -18 -50 0 -9 16 15 34 54 19 40 39 75 45 78 13 9 15 26 2
26 -5 0 -14 -13 -21 -30z M59 1770 c-2 -14 -5 -22 -14 -43 -7 -17 -4 -75 14
-262 5 -46 7 -5 6 122 0 169 -2 219 -6 183z M2897 1430 c-3 -8 -8 -48 -11 -89
-4 -41 -9 -86 -12 -100 -4 -22 -3 -23 6 -9 12 20 34 182 27 201 -3 8 -6 8 -10
-3z M72 1355 c0 -16 2 -22 5 -12 2 9 2 23 0 30 -3 6 -5 -1 -5 -18z M83 1293
c4 -3 10 -3 14 0 3 4 0 7 -7 7 -7 0 -10 -3 -7 -7z M80 1265 c0 -3 2 -5 5 -5 3
0 5 2 5 5 0 3 -2 5 -5 5 -3 0 -5 -2 -5 -5z M98 1254 c-2 -5 1 -20 8 -34 8 -14
13 -18 13 -10 -1 24 -15 55 -21 44z M2855 1190 c3 -5 8 -10 11 -10 2 0 4 5 4
10 0 6 -5 10 -11 10 -5 0 -7 -4 -4 -10z M120 1180 c0 -7 3 -10 7 -7 3 4 3 10
0 14 -4 3 -7 0 -7 -7z M2843 1158 c-13 -16 -26 -58 -19 -58 8 0 38 61 33 66
-2 3 -9 -1 -14 -8z M140 1155 c0 -3 2 -5 5 -5 3 0 5 2 5 5 0 3 -2 5 -5 5 -3 0
-5 -2 -5 -5z M140 1130 c0 -7 3 -10 7 -7 3 4 3 10 0 14 -4 3 -7 0 -7 -7z M155
1101 c-3 -5 -1 -12 5 -16 5 -3 10 1 10 9 0 18 -6 21 -15 7z M2791 1059 c-12
-19 -21 -40 -21 -47 0 -7 -4 -10 -10 -7 -5 3 -10 0 -10 -8 0 -7 -13 -26 -30
-42 -16 -15 -28 -32 -27 -36 1 -5 -11 -19 -28 -32 -29 -24 -29 -25 -26 -118 1
-52 6 -98 11 -103 5 -5 8 35 7 93 -2 101 -1 103 26 126 15 14 26 28 25 32 -1
4 15 26 35 47 20 22 37 46 37 53 0 7 5 13 12 13 6 0 8 3 5 7 -4 3 0 15 10 25
9 10 13 21 10 24 -3 4 -15 -9 -26 -27z M174 1055 c8 -8 18 -15 22 -15 3 0 1 7
-6 15 -7 8 -17 15 -22 15 -5 0 -3 -7 6 -15z M200 1021 c0 -10 19 -25 25 -20 1
2 -3 10 -11 17 -8 7 -14 8 -14 3z M254 947 c15 -19 26 -39 26 -45 0 -7 5 -12
10 -12 6 0 11 -21 11 -47 l1 -48 9 49 c7 44 5 52 -12 64 -10 7 -26 26 -34 43
-9 16 -20 29 -26 29 -5 0 1 -15 15 -33z M280 770 c0 -7 3 -10 7 -7 3 4 3 10 0
14 -4 3 -7 0 -7 -7z M282 720 c0 -14 2 -19 5 -12 2 6 2 18 0 25 -3 6 -5 1 -5
-13z M273 635 c0 -27 2 -38 4 -22 2 15 2 37 0 50 -2 12 -4 0 -4 -28z M2655
638 c-6 -16 -1 -45 8 -54 4 -4 7 9 7 29 0 37 -7 48 -15 25z M260 530 c0 -7 3
-10 7 -7 3 4 3 10 0 14 -4 3 -7 0 -7 -7z M2660 530 c0 -5 5 -10 11 -10 5 0 7
5 4 10 -3 6 -8 10 -11 10 -2 0 -4 -4 -4 -10z M263 465 c0 -22 2 -30 4 -17 2
12 2 30 0 40 -3 9 -5 -1 -4 -23z M2655 378 c-2 -7 -5 -51 -8 -98 -4 -77 -3
-82 9 -55 7 17 11 44 7 64 -4 23 -1 36 8 42 10 6 11 9 1 9 -8 0 -10 8 -6 25 6
25 -3 36 -11 13z M260 350 c0 -7 3 -10 7 -7 3 4 3 10 0 14 -4 3 -7 0 -7 -7z
M261 314 c0 -11 3 -14 6 -6 3 7 2 16 -1 19 -3 4 -6 -2 -5 -13z M2460 266 c0
-20 4 -24 20 -21 14 3 24 -3 29 -17 5 -14 10 -17 15 -10 4 7 -6 25 -24 42 -37
36 -40 37 -40 6z M260 275 c0 -3 2 -5 5 -5 3 0 5 2 5 5 0 3 -2 5 -5 5 -3 0 -5
-2 -5 -5z M1440 223 c-7 -32 -14 -65 -17 -73 -2 -8 6 3 18 25 27 50 39 58 60
39 27 -24 31 -15 4 11 -14 14 -25 32 -25 40 0 8 -6 15 -13 15 -9 0 -19 -22
-27 -57z M1730 250 c-7 -18 -18 -37 -24 -44 -23 -25 -37 -56 -23 -50 7 2 21
20 31 39 10 19 23 32 27 29 5 -3 9 0 9 5 0 6 5 11 10 11 6 0 10 -7 10 -15 0
-8 5 -15 10 -15 13 0 -12 62 -27 67 -5 2 -16 -10 -23 -27z M2209 275 c-1 -5
-3 -14 -4 -20 -1 -5 -7 -23 -13 -38 -15 -35 -15 -50 -2 -42 6 3 10 15 10 25 0
33 24 28 62 -11 69 -73 57 -49 -36 76 -8 11 -16 16 -17 10z M1159 244 c-5 -15
-12 -30 -14 -35 -6 -9 16 -6 34 5 10 7 12 6 6 -4 -6 -10 -4 -12 8 -7 10 4 17
1 17 -6 1 -15 108 -102 116 -94 3 3 -7 14 -23 24 -39 25 -91 80 -109 114 -18
36 -22 36 -35 3z M1986 221 c-3 -22 -18 -54 -33 -72 -16 -18 -21 -29 -13 -24
8 5 21 17 28 27 7 10 18 16 23 13 5 -3 6 0 3 8 -3 8 0 18 7 23 7 4 10 3 6 -3
-4 -6 2 -13 12 -16 18 -4 19 -3 3 39 -20 54 -28 55 -36 5z M434 213 c-9 -21
-19 -41 -21 -45 -2 -4 3 -5 11 -2 9 3 16 13 16 21 0 10 11 3 30 -17 36 -39 37
-36 6 30 l-24 52 -18 -39z M664 228 c-5 -13 -7 -26 -6 -30 1 -3 -5 -12 -13
-18 -8 -7 -15 -17 -15 -23 0 -6 11 0 24 12 20 19 28 21 45 12 25 -14 26 -11 4
34 -19 41 -29 44 -39 13z M272 220 c0 -14 2 -19 5 -12 2 6 2 18 0 25 -3 6 -5
1 -5 -13z M910 210 c-8 -16 -6 -21 12 -31 13 -6 33 -21 46 -32 12 -11 22 -15
22 -9 0 6 -4 14 -10 17 -5 3 -17 21 -26 40 -19 40 -29 43 -44 15z M2450 225
c0 -3 2 -5 5 -5 3 0 5 2 5 5 0 3 -2 5 -5 5 -3 0 -5 -2 -5 -5z M2530 210 c0 -5
7 -10 15 -10 7 0 18 -8 24 -17 5 -10 12 -15 16 -11 7 6 -33 48 -47 48 -4 0 -8
-4 -8 -10z M1800 195 c0 -3 2 -5 5 -5 3 0 5 2 5 5 0 3 -2 5 -5 5 -3 0 -5 -2
-5 -5z M280 185 c0 -12 10 -26 31 -42 14 -12 99 1 87 13 -2 2 -20 -1 -39 -6
-31 -9 -36 -8 -56 17 -13 16 -23 24 -23 18z M1133 178 c-23 -30 -24 -41 -2
-21 12 12 20 25 17 28 -3 3 -10 0 -15 -7z M1535 180 c3 -5 8 -10 11 -10 3 0 2
5 -1 10 -3 6 -8 10 -11 10 -3 0 -2 -4 1 -10z M894 158 c-4 -7 -3 -8 4 -4 7 4
12 9 12 12 0 8 -9 4 -16 -8z M1845 150 c10 -11 20 -20 23 -20 3 0 -3 9 -13 20
-10 11 -20 20 -23 20 -3 0 3 -9 13 -20z M730 155 c0 -3 2 -5 5 -5 3 0 5 2 5 5
0 3 -2 5 -5 5 -3 0 -5 -2 -5 -5z M870 155 c0 -3 2 -5 5 -5 3 0 5 2 5 5 0 3 -2
5 -5 5 -3 0 -5 -2 -5 -5z M1550 155 c0 -3 2 -5 5 -5 3 0 5 2 5 5 0 3 -2 5 -5
5 -3 0 -5 -2 -5 -5z M2055 150 c3 -5 8 -10 11 -10 3 0 2 5 -1 10 -3 6 -8 10
-11 10 -3 0 -2 -4 1 -10z M2140 145 c-11 -13 -10 -14 4 -9 9 3 16 10 16 15 0
13 -6 11 -20 -6z M840 140 c0 -7 3 -10 7 -7 3 4 3 10 0 14 -4 3 -7 0 -7 -7z
M613 133 c4 -3 10 -3 14 0 3 4 0 7 -7 7 -7 0 -10 -3 -7 -7z M740 135 c0 -3 2
-5 5 -5 3 0 5 2 5 5 0 3 -2 5 -5 5 -3 0 -5 -2 -5 -5z M763 133 c4 -3 10 -3 14
0 3 4 0 7 -7 7 -7 0 -10 -3 -7 -7z M860 135 c0 -3 2 -5 5 -5 3 0 5 2 5 5 0 3
-2 5 -5 5 -3 0 -5 -2 -5 -5z M1583 133 c4 -3 10 -3 14 0 3 4 0 7 -7 7 -7 0
-10 -3 -7 -7z M1643 133 c4 -3 10 -3 14 0 3 4 0 7 -7 7 -7 0 -10 -3 -7 -7z
M2330 135 c0 -3 2 -5 5 -5 3 0 5 2 5 5 0 3 -2 5 -5 5 -3 0 -5 -2 -5 -5z M523
123 c4 -3 10 -3 14 0 3 4 0 7 -7 7 -7 0 -10 -3 -7 -7z M590 125 c0 -3 2 -5 5
-5 3 0 5 2 5 5 0 3 -2 5 -5 5 -3 0 -5 -2 -5 -5z M790 125 c0 -3 2 -5 5 -5 3 0
5 2 5 5 0 3 -2 5 -5 5 -3 0 -5 -2 -5 -5z M820 125 c0 -3 2 -5 5 -5 3 0 5 2 5
5 0 3 -2 5 -5 5 -3 0 -5 -2 -5 -5z M1080 120 c-9 -6 -10 -10 -3 -10 6 0 15 5
18 10 8 12 4 12 -15 0z M1400 125 c0 -3 2 -5 5 -5 3 0 5 2 5 5 0 3 -2 5 -5 5
-3 0 -5 -2 -5 -5z M1898 123 c7 -3 16 -2 19 1 4 3 -2 6 -13 5 -11 0 -14 -3 -6
-6z M2360 125 c0 -3 2 -5 5 -5 3 0 5 2 5 5 0 3 -2 5 -5 5 -3 0 -5 -2 -5 -5z
M558 113 c7 -3 16 -2 19 1 4 3 -2 6 -13 5 -11 0 -14 -3 -6 -6z M1023 113 c4
-3 10 -3 14 0 3 4 0 7 -7 7 -7 0 -10 -3 -7 -7z M1380 110 c0 -7 3 -10 7 -7 3
4 3 10 0 14 -4 3 -7 0 -7 -7z M1345 100 c3 -5 8 -10 11 -10 2 0 4 5 4 10 0 6
-5 10 -11 10 -5 0 -7 -4 -4 -10z"/>
</g>
</svg>
